<svg width="133" height="83" viewBox="0 0 133 83" fill="none" xmlns="http://www.w3.org/2000/svg">
<path d="M64.7481 50.4351C62.3123 50.4407 59.8995 49.9633 57.6493 49.0305C55.3992 48.0977 53.3563 46.728 51.6388 45.0007L46.6334 39.9953C43.1568 36.5178 38.4415 34.5631 33.5241 34.5609L0 34.5132V82.1835H133V50.4351H64.7481Z" fill="#EEEEEE"/>
<path d="M47.1054 69.3125L44.903 70.1062C44.7193 70.1735 44.5554 70.2858 44.4263 70.4328L42.6911 72.4111C42.6711 72.4339 42.6562 72.4607 42.6475 72.4897C42.6388 72.5188 42.6363 72.5493 42.6404 72.5794C42.6445 72.6094 42.6549 72.6382 42.6711 72.6639C42.6872 72.6895 42.7087 72.7114 42.734 72.7281L43.02 72.914C43.2335 73.0541 43.4933 73.1049 43.7438 73.0554C43.9943 73.0059 44.2154 72.8602 44.3595 72.6494L44.7028 72.1489L45.2033 71.9868C45.5962 71.8602 45.9515 71.6379 46.2373 71.3401C46.5231 71.0422 46.7305 70.678 46.8408 70.2802L47.1054 69.3125Z" fill="#744C3A"/>
<path d="M50.5114 67.5726L48.893 68.9336C48.7574 69.0476 48.6532 69.1945 48.5903 69.3602L47.7418 71.5721C47.7318 71.5977 47.7275 71.6251 47.7292 71.6525C47.7308 71.6798 47.7383 71.7066 47.7512 71.7308C47.7641 71.755 47.7821 71.7761 47.8039 71.7928C47.8257 71.8094 47.8508 71.8211 47.8776 71.8271L48.1779 71.8963C48.4025 71.9481 48.6385 71.9097 48.8351 71.7894C49.0317 71.669 49.1731 71.4763 49.2291 71.2527L49.3625 70.7212L50.161 70.0943C50.324 69.9671 50.4529 69.8015 50.5361 69.6122C50.6193 69.4229 50.6542 69.2159 50.6377 69.0098L50.5114 67.5726Z" fill="#744C3A"/>
<path d="M116.099 82.1263L121.964 60.279C122.277 59.1202 122.318 57.9048 122.084 56.7276C121.845 55.5483 121.34 54.4393 120.606 53.486C119.87 52.5381 118.934 51.7649 117.865 51.2217C116.789 50.6933 115.607 50.4162 114.409 50.4113H107.473L98.9563 82.1263H116.099Z" fill="#05A357"/>
<path d="M107.956 82.1263L113.82 60.279C114.133 59.1202 114.174 57.9048 113.939 56.7276C113.701 55.5483 113.195 54.4393 112.461 53.486C111.726 52.5381 110.79 51.7649 109.72 51.2217C109.002 50.8714 108.236 50.6304 107.446 50.5066L98.9563 82.1263H107.956Z" fill="#4CAF50"/>
<path d="M103.452 35.388C108.521 35.388 112.631 31.2785 112.631 26.2091C112.631 21.1397 108.521 17.0302 103.452 17.0302C98.3822 17.0302 94.2727 21.1397 94.2727 26.2091C94.2727 31.2785 98.3822 35.388 103.452 35.388Z" fill="black"/>
<path d="M102.224 18.1314C104.879 18.1314 107.425 19.1861 109.303 21.0635C111.18 22.9408 112.235 25.4871 112.235 28.1421C112.235 28.4448 112.218 28.7428 112.192 29.0383C112.817 27.1061 112.783 25.0212 112.096 23.1102C111.409 21.1993 110.108 19.57 108.396 18.4776C106.684 17.3851 104.658 16.8912 102.636 17.0731C100.613 17.255 98.7081 18.1025 97.2187 19.4828C98.7387 18.5986 100.466 18.1323 102.224 18.1314Z" fill="#3D281E"/>
<path d="M60.8749 77.9861L92.2419 78.582L102.229 72.0989L104.374 52.4349C103.707 52.8639 91.6699 66.7836 91.6699 66.7836L63.9735 72.9569C63.2648 73.1244 62.5243 73.0997 61.8283 72.8854" fill="#99644C"/>
<path d="M61.8283 72.8878L56.1532 66.929C55.9122 66.6756 55.6108 66.4877 55.2772 66.3831C54.9436 66.2784 54.5888 66.2604 54.2463 66.3307L48.0778 67.6179C47.8546 67.6641 47.6476 67.7684 47.4777 67.9204C47.3077 68.0723 47.1809 68.2664 47.1101 68.4831L45.599 73.0761C45.5885 73.1082 45.5857 73.1423 45.5909 73.1757C45.596 73.2091 45.609 73.2408 45.6288 73.2682C45.6485 73.2956 45.6745 73.318 45.7045 73.3335C45.7345 73.349 45.7678 73.3571 45.8016 73.3573C46.1594 73.3576 46.5059 73.2322 46.7808 73.0031C47.0556 72.774 47.2414 72.4556 47.3056 72.1036L47.3651 71.7723L47.582 71.5888C47.8905 71.3262 48.1397 71.0011 48.3131 70.635C48.4865 70.2689 48.5802 69.8701 48.5879 69.4651L49.8869 69.5318C50.5057 69.563 51.1248 69.4748 51.7103 69.272C51.9623 69.1848 52.2385 69.2005 52.479 69.3156C52.7195 69.4307 52.9049 69.636 52.995 69.887L53.7553 71.9987C53.8695 72.3178 53.8646 72.6674 53.7415 72.9831C53.6185 73.2989 53.3855 73.5596 53.0856 73.7173C52.8224 73.8562 52.5217 73.9071 52.2275 73.8627L50.1419 73.5576C49.7414 73.498 49.3323 73.5577 48.9656 73.7294C48.5989 73.9011 48.2909 74.1771 48.0802 74.5229C48.0566 74.5607 48.0417 74.6033 48.0368 74.6475C48.0318 74.6918 48.0368 74.7366 48.0514 74.7787C48.0661 74.8208 48.09 74.859 48.1213 74.8907C48.1527 74.9223 48.1908 74.9465 48.2327 74.9615L53.7148 77.1066C54.953 77.5914 56.266 77.8575 57.5952 77.8932L60.8749 77.9766L61.8283 72.8878Z" fill="#99644C"/>
<path d="M91.6699 66.7836L71.1359 71.3623C70.6091 72.5609 70.384 73.8703 70.4805 75.176C70.6054 76.2452 70.9626 77.2743 71.5268 78.1911L92.2419 78.582L102.229 72.0989L104.374 52.4349C103.707 52.8663 91.6699 66.7836 91.6699 66.7836Z" fill="#744C3A"/>
<path d="M67.0244 36.6584L65.6896 39.1611C65.6065 39.3072 65.5576 39.4701 65.5466 39.6378C65.5267 39.8062 65.543 39.9768 65.5943 40.1384C65.6497 40.3008 65.7301 40.4536 65.8326 40.5912C65.9451 40.7274 66.0826 40.8406 66.2378 40.9249L73.6267 44.8815L81.2539 30.6996C81.2884 30.6321 81.3125 30.5598 81.3254 30.4851C81.3293 30.4128 81.3213 30.3403 81.3016 30.2706C81.2846 30.2007 81.252 30.1355 81.2063 30.0799C81.1586 30.0323 81.1109 29.9608 81.0394 29.9369L73.5075 25.9088C73.44 25.8744 73.3677 25.8503 73.293 25.8373C73.2207 25.8334 73.1482 25.8415 73.0785 25.8611C73.0085 25.8781 72.9433 25.9107 72.8878 25.9565C72.8401 26.0041 72.7686 26.0518 72.7448 26.1233L71.124 29.1742C70.639 28.6205 70.025 28.1948 69.3364 27.9348C68.653 27.6752 67.9188 27.5773 67.1912 27.6487C66.4645 27.7209 65.7677 27.975 65.1652 28.3876C64.5627 28.7994 64.0648 29.3462 63.7113 29.9846C63.3634 30.6298 63.1754 31.3491 63.1631 32.0821C63.158 32.8163 63.3284 33.5411 63.6601 34.1961C63.9918 34.8512 64.4751 35.4175 65.0699 35.848C65.6387 36.2854 66.3129 36.5649 67.0244 36.6584ZM64.2357 32.1536C64.2378 31.4246 64.4715 30.7151 64.903 30.1276C65.3335 29.537 65.9441 29.102 66.643 28.8882C67.3452 28.6774 68.096 28.6941 68.7882 28.9358C69.4825 29.1722 70.078 29.6336 70.4805 30.2468L67.6202 35.5382C66.7253 35.5295 65.8694 35.1701 65.2366 34.5372C64.6037 33.9044 64.2443 33.0485 64.2357 32.1536Z" fill="#333333"/>
<path d="M101.914 82.1263L109.541 56.4464C110.888 51.9179 110.954 47.1048 109.732 42.5411C108.51 37.9774 106.047 33.8415 102.617 30.5924L97.1663 34.8708L95.698 35.1807L90.7403 38.0409L77.631 52.9378L77.2496 79.228L98.3938 82.1263H101.914Z" fill="#156A41"/>
<path d="M80.5222 78.0434H84.1952C85.32 78.0424 86.424 77.7407 87.393 77.1695C88.3619 76.5983 89.1605 75.7783 89.7059 74.7946L93.9294 67.2151C94.3774 66.4087 94.8857 65.6374 95.4501 64.9078L99.321 59.9024L107.07 48.1136L88.3806 57.6476L80.5222 78.0434Z" fill="#10462D"/>
<path d="M102.541 82.1263L103.256 78.203L79.6594 78.0362C78.2353 79.5635 76.6524 80.9346 74.9376 82.1263H102.541Z" fill="black"/>
<path d="M68.9789 37.8263L70.2898 36.3247L67.7394 34.0842L66.9529 34.9661C66.8785 35.0492 66.8217 35.1465 66.786 35.2522C66.7586 35.3533 66.7426 35.4573 66.7384 35.562C66.7366 35.6696 66.7611 35.7759 66.8099 35.8719C66.8596 35.9685 66.9239 36.057 67.0006 36.1341L68.9789 37.8263Z" fill="#99644C"/>
<path d="M68.2161 39.7093L69.5271 38.2077L66.9767 35.9434L66.357 36.6584C66.2584 36.7591 66.1849 36.8816 66.1425 37.0159C66.0902 37.1442 66.0737 37.2842 66.0948 37.4211C66.1038 37.5606 66.136 37.6975 66.1901 37.8263C66.2562 37.9528 66.3451 38.0659 66.4523 38.16L68.2161 39.7093Z" fill="#99644C"/>
<path d="M0 77.8694H82.7413C83.2141 77.8694 83.6676 78.0572 84.0019 78.3915C84.3363 78.7259 84.5241 79.1794 84.5241 79.6522V82.1835H0V77.8694Z" fill="#333333"/>
<path d="M26.9098 0L24.7409 0.48862C24.2502 0.602248 23.8244 0.905392 23.5564 1.33187C23.2885 1.75834 23.2002 2.2735 23.3107 2.76487L35.388 55.8099C35.5017 56.2986 35.8034 56.7227 36.2277 56.9904C36.652 57.2581 37.1647 57.3478 37.6547 57.2401L39.8595 56.7467L26.9098 0Z" fill="#CBCBCB"/>
<path d="M22.1667 76.5346H18.9727V32.2251C18.9705 31.5703 19.0979 30.9215 19.3475 30.3161C19.597 29.7108 19.9639 29.1607 20.4269 28.6977C20.8899 28.2347 21.4399 27.8678 22.0453 27.6183C22.6507 27.3687 23.2995 27.2414 23.9543 27.2436H32.7733V30.4136H23.9543C23.4804 30.4143 23.026 30.6028 22.6909 30.9379C22.3558 31.273 22.1673 31.7273 22.1667 32.2013V76.5346Z" fill="#CBCBCB"/>
<path d="M31.3909 75.5573H6.93604V77.8693H31.3909V75.5573Z" fill="#CBCBCB"/>
<path d="M49.6128 76.0102H33.8459V77.8693H49.6486V76.0102H49.6128Z" fill="#CBCBCB"/>
<path d="M66.7383 38.4461L68.6213 35.0615L68.0016 34.5133C67.9048 34.4398 67.8305 34.3407 67.7871 34.2272C67.7336 34.1234 67.7012 34.01 67.6917 33.8935C67.6841 33.7724 67.7003 33.6509 67.7394 33.536C67.7806 33.4256 67.8367 33.3213 67.9063 33.2262L68.2161 32.8686C68.2623 32.8013 68.3293 32.7511 68.4068 32.7256C68.4813 32.6877 68.5621 32.6635 68.6452 32.6541C68.7253 32.6502 68.8057 32.6582 68.8835 32.678C68.9598 32.7084 69.0319 32.7484 69.098 32.7971H69.1219C69.2264 32.8718 69.351 32.9133 69.4794 32.9163C69.5456 32.9186 69.6117 32.9071 69.6732 32.8825C69.7348 32.8579 69.7905 32.8207 69.8369 32.7733C69.9334 32.6877 69.9932 32.5682 70.0038 32.4396C70.0207 32.305 69.9867 32.169 69.9084 32.0582L69.384 31.4147C69.1457 31.1287 69.0027 30.4613 69.241 30.1753C69.3095 30.0991 69.39 30.0346 69.4794 29.9846C69.5678 29.9386 69.6658 29.9141 69.7654 29.9131C69.8709 29.9059 69.9768 29.9221 70.0753 29.9607C70.1755 29.9931 70.2657 30.0505 70.3374 30.1276L73.865 33.3453L72.721 30.1038C72.6215 29.8045 72.581 29.4888 72.6018 29.1742C72.627 28.8652 72.7163 28.5648 72.864 28.2923L73.0785 27.8871C73.1216 27.8202 73.1785 27.7633 73.2453 27.7202C73.3139 27.6931 73.3863 27.677 73.4599 27.6726C73.5369 27.6743 73.6117 27.6992 73.6744 27.7441C73.7417 27.7902 73.7919 27.8572 73.8174 27.9348L74.5324 29.9131L77.1543 34.7278C78.3455 37.5295 79.0624 40.5098 79.2756 43.5468L80.7057 62.8056L77.7025 64.7124L75.9625 68.2876L74.3799 78.8466C71.1455 74.3179 72.3158 65.6801 72.5541 58.2435C72.6733 54.5014 72.864 50.1157 73.007 47.4939C73.1268 45.9047 72.6223 44.3314 71.6007 43.1082L66.7383 38.4461Z" fill="#99644C"/>
<path d="M80.1098 61.7091C83.0152 58.3538 85.5485 54.6936 87.6656 50.7926C89.8107 46.9075 91.4792 42.8317 94.2679 39.3041C96.0079 37.159 98.3437 35.8719 101.109 35.9195C103.564 35.9672 106.162 36.9921 107.52 39.1373C108.879 41.2824 108.879 44.2618 107.282 46.2878L87.4749 71.1717C78.9658 81.9451 75.9387 79.8715 74.7946 79.2994C74.4847 79.1326 74.1749 78.5844 73.9127 77.8217C73.3149 76.1011 73.1271 74.2647 73.3645 72.4588C73.596 70.6558 74.2493 68.9328 75.2713 67.4296L75.9387 66.4523L80.1098 61.7091Z" fill="#99644C"/>
<path d="M76.7682 10.1466L75.5073 13.3C75.2684 13.8981 75.1504 14.5377 75.1601 15.1817C75.1698 15.8257 75.3071 16.4614 75.5639 17.0521C75.8208 17.6428 76.1922 18.1766 76.6566 18.6229C77.1211 19.0692 77.6694 19.419 78.2698 19.6521L78.532 19.7545L77.8908 12.4276L76.7682 10.1466Z" fill="black"/>
<path d="M92.3921 37.9217L91.0025 31.3908L87.3009 33.2762C87.1273 33.3648 86.937 33.4162 86.7423 33.4268C86.5476 33.4375 86.3528 33.4073 86.1705 33.3381C85.9882 33.269 85.8224 33.1624 85.6837 33.0253C85.5451 32.8882 85.4367 32.7236 85.3655 32.5421L85.2583 32.2656C85.1073 31.8805 84.8694 31.5355 84.563 31.2576C84.2566 30.9798 83.8901 30.7765 83.4921 30.6639L83.2537 30.5924L83.5087 29.4554L81.6019 28.8548L81.4279 27.1243H79.3185C79.209 27.1245 79.1006 27.1014 79.0007 27.0564C78.9008 27.0115 78.8116 26.9458 78.739 26.8638C78.6664 26.7817 78.6121 26.6851 78.5797 26.5805C78.5473 26.4758 78.5375 26.3655 78.551 26.2568L79.042 22.2763C79.0951 21.8517 79.051 21.4206 78.9133 21.0154L77.0065 15.4094C76.4317 13.7128 76.349 11.8882 76.7682 10.1466C77.4629 7.2724 79.1041 4.71536 81.4277 2.88668C83.7514 1.05799 86.6226 0.063924 89.5796 0.0643312C91.8717 0.0639681 94.1244 0.661585 96.1149 1.79815C98.1055 2.93472 99.7651 4.57091 100.93 6.5451L101.078 6.79775C102.276 8.82877 102.909 11.1441 102.908 13.5026C102.909 15.1752 102.591 16.8326 101.971 18.3864L100.703 21.5708C100.297 22.5912 100.285 23.7264 100.67 24.7551L104.851 37.2328L92.3921 37.9217Z" fill="#99644C"/>
<path d="M92.3921 37.9217L91.0025 31.3909C92.2218 29.6187 93.0587 27.6121 93.4599 25.4988L93.7793 23.8185L92.3921 37.9217Z" fill="#744C3A"/>
<path d="M82.8342 30.2992C82.8785 30.3738 82.9379 30.4383 83.0084 30.4888C83.079 30.5393 83.1593 30.5745 83.2442 30.5924L83.5493 30.4184C83.7781 30.2884 83.9764 30.111 84.131 29.898C84.2855 29.6851 84.3928 29.4415 84.4455 29.1837L84.6576 28.135L82.808 29.2505L82.9868 29.4721C82.8749 29.5747 82.7995 29.7109 82.772 29.8601C82.7445 30.0094 82.7663 30.1635 82.8342 30.2992Z" fill="#672A16"/>
<path d="M82.0047 29.3935L82.8199 29.6866L84.1809 28.8572C84.3108 28.7836 84.4216 28.6806 84.5044 28.5564C84.5872 28.4322 84.6396 28.2903 84.6576 28.1421L84.71 27.725L84.2095 28.011C83.8777 28.1993 83.4987 28.2878 83.1178 28.2661L82.5935 28.2351C82.4627 28.2283 82.332 28.248 82.2091 28.2931C82.0862 28.3381 81.9737 28.4076 81.8784 28.4973L81.7783 28.5926L81.5662 28.6617L81.5828 28.8429C81.5957 28.9646 81.6419 29.0804 81.7163 29.1775C81.7908 29.2747 81.8906 29.3494 82.0047 29.3935Z" fill="#672A16"/>
<path d="M94.9973 1.17267C97.4014 2.18783 99.4124 3.95382 100.73 6.20665L101.078 6.79776C102.101 8.53304 102.714 10.4796 102.869 12.4884C103.024 14.4971 102.717 16.5147 101.971 18.3864L100.703 21.5708C100.44 22.2365 100.341 22.9563 100.417 23.6683H97.724C97.2598 23.6682 96.8034 23.5492 96.3982 23.3226C95.9931 23.0961 95.6527 22.7695 95.4096 22.374C94.6493 21.2466 95.2046 19.8475 95.5455 18.5318L96.1461 16.1602C96.2683 15.7133 96.2413 15.2387 96.0692 14.8085C95.8971 14.3784 95.5894 14.0161 95.1927 13.7767C94.9168 13.6188 94.6081 13.5267 94.2908 13.5075C93.9734 13.4882 93.6559 13.5424 93.3629 13.6657C93.0699 13.7891 92.8092 13.9783 92.6012 14.2187C92.3931 14.4591 92.2433 14.7442 92.1633 15.0519L91.7033 16.8061H90.4853C89.6324 16.8065 88.8026 16.5296 88.1208 16.0172L84.5289 13.3238C83.3596 12.4473 81.9382 11.9724 80.4769 11.97H78.215C77.9921 11.969 77.7723 11.9176 77.5721 11.8196C77.3719 11.7216 77.1964 11.5796 77.0589 11.4042C76.9213 11.2288 76.8252 11.0246 76.7777 10.8068C76.7303 10.589 76.7327 10.3633 76.7849 10.1466C78.613 2.51697 86.8886 -2.20715 94.9973 1.17267Z" fill="black"/>
<path d="M79.1636 17.7977C79.4871 17.5299 79.8655 17.3366 80.2721 17.2316C80.6787 17.1265 81.1034 17.1123 81.5161 17.1899L82.3146 17.3734C82.4219 17.3996 82.3885 17.5593 82.2646 17.5736L81.7712 17.6165C80.9826 17.7076 80.2415 18.0406 79.6498 18.5699L79.2065 18.9704C79.0839 19.0878 78.9236 19.1578 78.7542 19.1678C78.5848 19.1778 78.4173 19.1273 78.2817 19.0252L78.2936 18.9728C78.4722 18.5097 78.7728 18.1036 79.1636 17.7977Z" fill="#010101"/>
<path d="M82.3837 19.6187C82.3837 19.6187 81.1181 18.8345 79.1302 20.2884C79.4735 20.6412 80.0717 20.4005 80.0717 20.4005C80.7582 19.9238 81.4709 19.7855 82.3146 19.6306L82.3837 19.6187Z" fill="#010101"/>
<path d="M80.8351 20.8892C80.9764 20.7814 80.9497 20.5091 80.7756 20.281C80.6014 20.0529 80.3457 19.9554 80.2045 20.0632C80.0632 20.1711 80.0899 20.4434 80.264 20.6715C80.4382 20.8996 80.6938 20.9971 80.8351 20.8892Z" fill="#010101"/>
<path d="M95.7123 16.308L94.8805 19.6687C94.7966 20.0155 94.5963 20.323 94.3131 20.5399C94.0298 20.7568 93.6807 20.8699 93.3241 20.8605L92.7449 20.8438L91.9607 18.5294L95.7123 16.308Z" fill="#99644C"/>
<path d="M93.5171 20.5411C93.7198 20.5411 93.8842 20.3768 93.8842 20.1741C93.8842 19.9713 93.7198 19.807 93.5171 19.807C93.3144 19.807 93.1501 19.9713 93.1501 20.1741C93.1501 20.3768 93.3144 20.5411 93.5171 20.5411Z" fill="white"/>
<path d="M93.5553 2.1833C96.3756 3.37189 98.7348 5.44253 100.279 8.08488L100.687 8.77609C101.87 10.782 102.584 13.0291 102.777 15.3498C102.865 14.738 102.909 14.1207 102.908 13.5026C102.909 11.1442 102.276 8.82879 101.078 6.79778L100.73 6.20667C99.4124 3.95384 97.4014 2.18784 94.9973 1.17269C91.2742 -0.378978 87.5202 -0.219282 84.3763 1.14409C87.4718 0.585511 90.6631 0.946819 93.5553 2.1833Z" fill="#3D281E"/>
<path d="M94.5945 15.0257C94.4572 14.9257 94.2991 14.8581 94.1321 14.8278C93.9652 14.7992 93.794 14.809 93.6315 14.8564C93.4707 14.9018 93.3223 14.9833 93.1977 15.0948C93.1836 15.106 93.1708 15.1188 93.1596 15.1329C94.0201 15.1115 94.5397 16.675 93.9485 16.8586C92.7282 17.2376 93.7722 18.0885 93.2931 18.2887C93.2417 18.3073 93.1953 18.3374 93.1573 18.3766C93.1193 18.4159 93.0908 18.4632 93.0738 18.5151C93.0524 18.5897 93.0541 18.669 93.0787 18.7426C93.1033 18.8162 93.1496 18.8807 93.2116 18.9274C93.2735 18.9741 93.3482 19.001 93.4257 19.0044C93.5033 19.0078 93.58 18.9876 93.6458 18.9465C93.8228 18.8405 93.9595 18.6787 94.0343 18.4865C94.154 18.1546 94.3676 17.8647 94.6493 17.6523C94.7919 17.5507 94.9128 17.4216 95.0049 17.2726C95.097 17.1236 95.1584 16.9577 95.1856 16.7847C95.2485 16.3089 95.1557 15.8256 94.921 15.407C94.8432 15.2563 94.7314 15.1257 94.5945 15.0257Z" fill="#744C3A"/>
<path d="M90.7189 38.1052L92.1013 35.3261C92.3394 34.8497 92.6692 34.4249 93.0716 34.076C93.474 33.7271 93.9413 33.461 94.4467 33.2929L102.627 30.5924L105.683 38.1052H90.7189Z" fill="#156A41"/>
<path d="M86.7595 48.4799L94.2375 38.5092C95.5131 36.8084 97.412 35.6841 99.5165 35.3834C101.621 35.0828 103.759 35.6305 105.46 36.906C107.16 38.1816 108.285 40.0805 108.585 42.185C108.886 44.2896 108.338 46.4274 107.063 48.1281L99.5846 58.0988L86.7595 48.4799Z" fill="#156A41"/>
<path d="M8.94054 55.9124L8.60208 55.574L11.6577 52.5207L13.8458 54.7111L13.5097 55.0472L11.6577 53.1952L8.94054 55.9124Z" fill="#10462D"/>
<path d="M9.77711 50.6419L9.44003 50.979L11.4878 53.0267L11.8249 52.6897L9.77711 50.6419Z" fill="#10462D"/>
<path d="M7.30309 50.7068C7.35735 51.0585 7.53473 51.3795 7.80363 51.6126C8.07538 51.8524 8.41918 51.9949 8.78087 52.0178L11.069 52.1608L11.0929 50.4447C11.0984 49.9241 10.9213 49.4181 10.5923 49.0145C10.2529 48.6068 9.79458 48.3151 9.2814 48.1803L6.77872 47.6083L7.30309 50.7068Z" fill="#05A357"/>
<path d="M17.677 55.7653L13.9034 59.5389L14.2405 59.876L18.0141 56.1024L17.677 55.7653Z" fill="#10462D"/>
<path d="M6.16614 54.2368C5.68413 54.2599 5.22505 54.4495 4.86712 54.7731C4.50489 55.0968 4.26503 55.5353 4.18782 56.0149L3.71112 59.011L6.04696 59.278C6.75348 59.3622 7.46761 59.2031 8.07162 58.8271C8.67562 58.451 9.13343 57.8803 9.36958 57.2091L10.4874 54.0104L6.16614 54.2368Z" fill="#156A41"/>
<path d="M16.9706 50.7068H16.4939V56.1293H16.9706V50.7068Z" fill="#10462D"/>
<path d="M18.2934 54.1582C17.8264 54.1372 17.3654 54.2713 16.9825 54.5395C16.6021 54.8037 16.3243 55.1909 16.196 55.636L15.4094 58.4008L17.6499 58.8775C18.3303 59.0333 19.0432 58.9578 19.6759 58.663C20.3032 58.3771 20.8096 57.8792 21.106 57.2567L22.5361 54.3489L18.2934 54.1582Z" fill="#156A41"/>
<path d="M19.0371 60.1551H14.0317V59.6784H19.0371C19.5159 59.6796 19.9901 59.5858 20.4324 59.4026C20.8746 59.2193 21.2761 58.9501 21.6137 58.6106L26.9742 53.2501L27.3103 53.5861L21.9522 58.9467C21.5703 59.3309 21.1161 59.6355 20.6157 59.8429C20.1153 60.0504 19.5788 60.1565 19.0371 60.1551Z" fill="#10462D"/>
<path d="M27.7846 48.6356C27.1415 48.7187 26.5219 48.9311 25.9631 49.2601C25.4043 49.5891 24.9179 50.0279 24.5333 50.5499C24.1486 51.072 23.8737 51.6666 23.725 52.2977C23.5764 52.9289 23.5571 53.5837 23.6683 54.2225L24.0663 56.4964L32.5397 48.0206L27.7846 48.6356Z" fill="#05A357"/>
<path d="M24.0735 56.4964L26.3474 56.8921C26.9859 57.0033 27.6403 56.9841 28.2712 56.8355C28.9021 56.687 29.4964 56.4122 30.0183 56.0278C30.5401 55.6434 30.9787 55.1573 31.3076 54.5988C31.6365 54.0403 31.8489 53.4209 31.9319 52.7781L32.5469 48.0111L24.0735 56.4964Z" fill="#156A41"/>
<path d="M14.6586 55.4167V58.11L14.7063 62.5672L12.3228 59.4925C11.6077 58.5629 10.7258 57.4188 10.9403 56.1794C11.0595 55.4405 11.5839 54.8446 12.1559 54.3679C12.3466 54.2249 14.5871 52.7233 14.5633 52.6518C14.8255 53.4622 14.6586 54.5586 14.6586 55.4167Z" fill="#05A357"/>
<path d="M0 69.527V62.591C0.0038601 62.2509 0.140752 61.9258 0.381362 61.6853C0.628567 61.4402 0.962826 61.3031 1.31093 61.3039H15.4213C15.7694 61.3031 16.1037 61.4402 16.3509 61.6853C16.5915 61.9258 16.7284 62.2509 16.7323 62.591V69.527C16.7313 70.6147 16.5137 71.6912 16.0922 72.6938C15.6707 73.6964 15.0537 74.6051 14.2772 75.3667C12.6966 76.9099 10.5752 77.7738 8.36613 77.7738C6.15709 77.7738 4.03563 76.9099 2.45502 75.3667C1.67855 74.6051 1.06155 73.6964 0.640045 72.6938C0.218535 71.6912 0.000953311 70.6147 0 69.527Z" fill="#CBCBCB"/>
<path d="M23.7064 62.6387L23.3703 62.3026L23.8065 61.8664C23.9053 61.7679 23.9836 61.6509 24.037 61.5221C24.0905 61.3932 24.118 61.2551 24.118 61.1156C24.118 60.9762 24.0905 60.838 24.037 60.7092C23.9836 60.5804 23.9053 60.4633 23.8065 60.3648L21.9974 58.5557L22.3359 58.2197L24.1426 60.0288C24.4308 60.317 24.5927 60.708 24.5927 61.1156C24.5927 61.5233 24.4308 61.9142 24.1426 62.2025L23.7064 62.6387Z" fill="#10462D"/>
<path d="M22.4193 64.9197C22.7319 64.915 23.0339 64.8059 23.2774 64.6098C23.5186 64.4073 23.6861 64.1308 23.7541 63.8233L24.1831 61.8926L22.6815 61.6305C22.2224 61.5533 21.7507 61.6375 21.3467 61.8688C20.941 62.0914 20.622 62.444 20.441 62.8699L19.6068 64.8959L22.4193 64.9197Z" fill="#156A41"/>
<path d="M26.507 67.1459H26.0303V63.4968C26.0309 63.2112 25.975 62.9283 25.8658 62.6645C25.7566 62.4006 25.5962 62.161 25.3939 61.9594L23.8065 60.372L24.1426 60.0359L25.73 61.6233C25.9775 61.8683 26.1736 62.1602 26.307 62.4819C26.4404 62.8035 26.5084 63.1485 26.507 63.4968V67.1459Z" fill="#10462D"/>
<path d="M28.2732 69.2291C28.5589 68.8537 28.7024 68.3893 28.6784 67.9182C28.6604 67.4524 28.4838 67.0067 28.1779 66.6549L26.2234 64.4383L24.5549 66.0114C24.0507 66.4841 23.7228 67.1147 23.6254 67.799C23.5273 68.4779 23.6707 69.1696 24.0306 69.7535L25.7467 72.566L28.2732 69.2291Z" fill="#05A357"/>
<path d="M24.1511 56.4887L23.814 56.8257L26.4196 59.4314L26.7567 59.0943L24.1511 56.4887Z" fill="#10462D"/>
<path d="M32.4444 62.7365L32.5397 62.7126L26.1996 58.6606C26.6286 61.8784 29.2743 63.6184 32.4444 62.7365Z" fill="#156A41"/>
<path d="M16.8228 50.0538L15.2545 48.4759C14.9832 48.2087 14.7674 47.8904 14.6197 47.5394C14.4721 47.1884 14.3954 46.8116 14.394 46.4308V41.4254H14.8707V46.4308C14.8706 46.7506 14.9338 47.0673 15.0565 47.3627C15.1792 47.658 15.3591 47.9262 15.5858 48.1517L17.1613 49.7153L16.8228 50.0538Z" fill="#10462D"/>
<path d="M16.277 40.279L14.6324 37.2733L12.9878 40.279C12.7777 40.6664 12.6992 41.1116 12.7641 41.5475C12.829 41.9834 13.0338 42.3864 13.3477 42.6958L14.6443 43.9949L15.9433 42.6958C16.2529 42.3833 16.4528 41.9788 16.513 41.543C16.5731 41.1072 16.4903 40.6637 16.277 40.279Z" fill="#05A357"/>
<path d="M17.4712 52.3396L17.7095 52.1727C18.1003 51.8978 18.4314 51.5467 18.6829 51.1404C18.9343 50.7342 19.1009 50.2812 19.1726 49.8089C19.2443 49.3365 19.2197 48.8545 19.1001 48.3919C18.9806 47.9293 18.7686 47.4957 18.477 47.1173L16.3175 44.3167V51.7389C16.3179 51.8729 16.3549 52.0042 16.4245 52.1187C16.4941 52.2332 16.5938 52.3264 16.7126 52.3882C16.8315 52.4501 16.965 52.4783 17.0987 52.4697C17.2324 52.4611 17.3612 52.4161 17.4712 52.3396Z" fill="#156A41"/>
<path d="M77.8169 64.3167L80.2862 57.1519L80.5841 61.1562L77.8169 64.3167Z" fill="#744C3A"/>
<path d="M28.8763 27.2435L29.5985 30.4136H27.0004V27.2435H28.8763Z" fill="#AFAFAF"/>
<path d="M22.1667 74.3394H18.9727V75.5812H22.1667V74.3394Z" fill="#AFAFAF"/>
<path d="M91.0025 31.3909C91.0025 31.3909 94.0343 29.6867 93.7793 23.8185L91.3553 26.0327L91.0025 31.3909Z" fill="#99644C"/>
</svg>
