<svg width="251" height="78" viewBox="0 0 251 78" fill="none" xmlns="http://www.w3.org/2000/svg">
<path d="M34.0421 22.3359V35.7913H0V22.3359H34.0421ZM6.59314 9.95699H25.1616V57.3872C25.1616 58.1049 25.2849 58.7104 25.5316 59.2037C25.7783 59.6747 26.1595 60.0335 26.6753 60.2802C27.1911 60.5044 27.8527 60.6165 28.66 60.6165C29.2206 60.6165 29.871 60.5493 30.611 60.4147C31.3735 60.2802 31.9341 60.168 32.2929 60.0783L34.984 73.1301C34.1543 73.3767 32.9657 73.6795 31.4183 74.0383C29.8934 74.3971 28.0769 74.6326 25.9689 74.7447C21.708 74.969 18.1311 74.5316 15.2382 73.4328C12.3453 72.3115 10.17 70.5511 8.71237 68.1516C7.2547 65.752 6.54829 62.747 6.59314 59.1364V9.95699Z" fill="black"/>
<path d="M41.6192 74.0047V22.3359H60.1876V74.0047H41.6192ZM50.9034 16.9538C48.3918 16.9538 46.2389 16.124 44.4448 14.4645C42.6508 12.805 41.7538 10.8092 41.7538 8.4769C41.7538 6.14463 42.6508 4.14874 44.4448 2.48924C46.2389 0.829748 48.3918 0 50.9034 0C53.4375 0 55.5904 0.829748 57.362 2.48924C59.1561 4.14874 60.0531 6.14463 60.0531 8.4769C60.0531 10.8092 59.1561 12.805 57.362 14.4645C55.5904 16.124 53.4375 16.9538 50.9034 16.9538Z" fill="black"/>
<path d="M116.877 39.1552H99.7886C99.6988 38.1012 99.3288 37.1929 98.6785 36.4305C98.0281 35.668 97.1872 35.0849 96.1556 34.6813C95.1464 34.2552 94.0252 34.0421 92.7917 34.0421C91.1995 34.0421 89.8316 34.3337 88.6879 34.9167C87.5441 35.4998 86.9835 36.3296 87.0059 37.406C86.9835 38.1685 87.3087 38.8749 87.9814 39.5252C88.6766 40.1756 90.011 40.6801 91.9844 41.0389L102.48 42.9227C107.772 43.887 111.708 45.5129 114.287 47.8003C116.888 50.0653 118.2 53.1039 118.222 56.9163C118.2 60.5941 117.101 63.7898 114.926 66.5033C112.773 69.1943 109.824 71.2799 106.079 72.76C102.356 74.2177 98.1066 74.9465 93.33 74.9465C85.4361 74.9465 79.2579 73.3319 74.7952 70.1026C70.3549 66.8733 67.8768 62.6124 67.3611 57.32H85.7949C86.0416 58.957 86.8489 60.2241 88.2169 61.1211C89.6073 61.9957 91.3565 62.433 93.4645 62.433C95.1689 62.433 96.5705 62.1415 97.6693 61.5584C98.7906 60.9753 99.3625 60.1456 99.3849 59.0692C99.3625 58.0824 98.8691 57.2975 97.9048 56.7145C96.9629 56.1314 95.4828 55.6605 93.4645 55.3017L84.3149 53.687C79.0448 52.7676 75.0979 51.0184 72.4741 48.4394C69.8503 45.8605 68.5496 42.5415 68.572 38.4824C68.5496 34.8943 69.4915 31.8556 71.3977 29.3664C73.3263 26.8547 76.0734 24.9485 79.6391 23.6478C83.2272 22.3247 87.4769 21.6632 92.3881 21.6632C99.8558 21.6632 105.743 23.2106 110.048 26.3053C114.376 29.4 116.653 33.6833 116.877 39.1552Z" fill="black"/>
<path d="M150.095 74.9465C144.578 74.9465 139.824 73.8925 135.832 71.7845C131.863 69.6541 128.802 66.6042 126.649 62.6348C124.518 58.6431 123.453 53.8664 123.453 48.3049C123.453 42.9675 124.53 38.303 126.683 34.3112C128.835 30.3195 131.874 27.2135 135.799 24.9934C139.723 22.7733 144.354 21.6632 149.691 21.6632C153.593 21.6632 157.125 22.2687 160.287 23.4797C163.449 24.6906 166.152 26.4511 168.394 28.7609C170.637 31.0483 172.364 33.8291 173.575 37.1032C174.786 40.3774 175.391 44.0664 175.391 48.1703V52.476H129.239V42.2499H158.303C158.28 40.7698 157.899 39.4691 157.159 38.3479C156.441 37.2042 155.466 36.3183 154.232 35.6904C153.021 35.0401 151.642 34.7149 150.095 34.7149C148.592 34.7149 147.213 35.0401 145.957 35.6904C144.702 36.3183 143.692 37.1929 142.93 38.3142C142.19 39.4355 141.797 40.7474 141.753 42.2499V53.2833C141.753 54.9428 142.1 56.4229 142.795 57.7236C143.491 59.0243 144.488 60.0447 145.789 60.7847C147.09 61.5248 148.66 61.8948 150.499 61.8948C151.777 61.8948 152.943 61.7154 153.997 61.3566C155.073 60.9978 155.993 60.482 156.755 59.8092C157.518 59.114 158.078 58.2843 158.437 57.32H175.391C174.808 60.9081 173.429 64.0252 171.253 66.6715C169.078 69.2953 166.197 71.336 162.608 72.7937C159.043 74.2289 154.872 74.9465 150.095 74.9465Z" fill="black"/>
<path d="M182.968 74.0047V22.3359H200.998V32.1584H201.537C202.478 28.5254 203.97 25.868 206.01 24.1861C208.074 22.5041 210.484 21.6632 213.243 21.6632C214.05 21.6632 214.846 21.7305 215.631 21.865C216.438 21.9771 217.212 22.1453 217.952 22.3696V38.2133C217.033 37.8993 215.9 37.6639 214.555 37.5069C213.209 37.3499 212.054 37.2714 211.09 37.2714C209.273 37.2714 207.636 37.6863 206.179 38.5161C204.743 39.3234 203.611 40.4671 202.781 41.9472C201.951 43.4048 201.537 45.1204 201.537 47.0939V74.0047H182.968Z" fill="black"/>
<path d="M221.38 59.8405L247.035 77.6016C247.331 77.8065 247.678 77.9264 248.037 77.9485C248.397 77.9706 248.755 77.8939 249.074 77.7268C249.393 77.5598 249.66 77.3086 249.847 77.0006C250.033 76.6926 250.132 76.3394 250.132 75.9794V40.4572C250.132 40.097 250.034 39.7436 249.847 39.4353C249.661 39.127 249.394 38.8756 249.075 38.7082C248.756 38.5409 248.397 38.4641 248.038 38.4861C247.678 38.5081 247.332 38.6281 247.035 38.833L221.38 56.5941C221.119 56.7765 220.906 57.0194 220.758 57.302C220.611 57.5846 220.534 57.8986 220.534 58.2173C220.534 58.536 220.611 58.8501 220.758 59.1326C220.906 59.4152 221.119 59.6581 221.38 59.8405Z" fill="black"/>
</svg>
